<?xml version="1.0" standalone="no"?>
<!DOCTYPE svg PUBLIC "-//W3C//DTD SVG 20010904//EN"
 "http://www.w3.org/TR/2001/REC-SVG-20010904/DTD/svg10.dtd">
<svg version="1.0" xmlns="http://www.w3.org/2000/svg"
 width="56.000000pt" height="56.000000pt" viewBox="0 0 56.000000 56.000000"
 preserveAspectRatio="xMidYMid meet">

<g transform="translate(0.000000,56.000000) scale(0.100000,-0.100000)"
fill="#000000" stroke="none">
<path d="M110 463 c-18 -32 -40 -69 -48 -83 -29 -47 11 0 62 73 31 44 42 67
32 67 -8 0 -29 -26 -46 -57z"/>
<path d="M275 510 c91 -12 157 -12 150 0 -4 6 -49 9 -108 9 -95 -2 -98 -2 -42
-9z"/>
<path d="M364 479 c-7 -12 -12 -8 58 -50 85 -49 91 -84 7 -36 l-40 22 -20 -24
c-19 -24 -27 -77 -9 -66 6 3 10 15 10 26 0 18 25 37 35 27 3 -3 0 -19 -6 -37
-10 -27 -9 -35 5 -49 19 -20 49 -7 55 23 3 19 29 50 35 44 2 -2 15 -26 29 -54
16 -31 26 -42 26 -30 0 11 -19 53 -42 92 -34 58 -52 77 -90 97 -29 16 -49 21
-53 15z m83 -135 c8 -21 -13 -42 -28 -27 -13 13 -5 43 11 43 6 0 13 -7 17 -16z"/>
<path d="M176 348 c-59 -88 -60 -90 -6 -128 l27 -19 57 84 c31 47 56 86 56 89
0 2 -18 15 -40 30 l-40 26 -54 -82z"/>
<path d="M10 286 c0 -16 87 -176 96 -176 4 0 -84 180 -92 189 -2 2 -4 -3 -4
-13z"/>
<path d="M300 281 c-5 -11 -10 -29 -10 -40 0 -41 83 -69 109 -37 14 17 11 67
-4 66 -5 -1 -9 -12 -7 -25 4 -33 -21 -42 -53 -21 -30 20 -33 46 -5 53 26 7 26
23 0 23 -10 0 -24 -9 -30 -19z"/>
<path d="M451 126 c-53 -77 -57 -86 -42 -86 5 0 24 26 41 58 18 31 40 67 48
80 8 12 12 22 9 22 -2 0 -28 -33 -56 -74z"/>
<path d="M236 168 c-9 -12 -16 -30 -16 -38 0 -23 42 -60 68 -60 27 0 62 33 62
60 0 53 -84 81 -114 38z m74 -18 c24 -24 16 -50 -15 -50 -34 0 -58 26 -45 51
14 24 35 24 60 -1z"/>
<path d="M146 103 c-4 -4 3 -15 16 -25 l23 -18 -28 0 c-16 0 -26 -4 -22 -10 4
-6 49 -9 108 -8 56 1 82 3 59 5 -25 3 -64 17 -91 34 -53 32 -54 32 -65 22z"/>
</g>
</svg>
